<svg width="1600" height="1200" viewBox="0 0 1600 1200" fill="none" xmlns="http://www.w3.org/2000/svg">
  <rect width="1600" height="1200" fill="#0A0B0D"/>
  <circle cx="245" cy="250" r="190" fill="#3B82F6" fill-opacity="0.22"/>
  <circle cx="1330" cy="1030" r="260" fill="#C9A85D" fill-opacity="0.18"/>
  <rect x="105" y="100" width="1390" height="1000" rx="42" fill="#111318" stroke="white" stroke-opacity="0.08"/>
  <rect x="195" y="184" width="350" height="760" rx="26" fill="#171B23"/>
  <rect x="625" y="258" width="340" height="610" rx="26" fill="#13161C"/>
  <rect x="1045" y="184" width="360" height="760" rx="26" fill="#171A20"/>
  <rect x="230" y="232" width="280" height="210" rx="18" fill="url(#paint0_linear)"/>
  <rect x="660" y="308" width="270" height="170" rx="18" fill="url(#paint1_linear)"/>
  <rect x="1082" y="232" width="285" height="245" rx="18" fill="url(#paint2_linear)"/>
  <text x="230" y="520" fill="#F5F5F5" font-family="Arial, Helvetica, sans-serif" font-size="52" font-weight="700">PULSE</text>
  <text x="230" y="575" fill="#F5F5F5" fill-opacity="0.7" font-family="Arial, Helvetica, sans-serif" font-size="24">Dynamic campaign layouts</text>
  <text x="660" y="555" fill="#F5F5F5" font-family="Arial, Helvetica, sans-serif" font-size="42" font-weight="700">Community First</text>
  <text x="660" y="600" fill="#F5F5F5" fill-opacity="0.68" font-family="Arial, Helvetica, sans-serif" font-size="22">Social templates for launch week</text>
  <text x="1082" y="555" fill="#F5F5F5" font-family="Arial, Helvetica, sans-serif" font-size="52" font-weight="700">MOVE</text>
  <text x="1082" y="610" fill="#C9A85D" font-family="Arial, Helvetica, sans-serif" font-size="24" letter-spacing="3">SOCIAL BRANDING</text>
  <defs>
    <linearGradient id="paint0_linear" x1="260" y1="252" x2="488" y2="418" gradientUnits="userSpaceOnUse">
      <stop stop-color="#3B82F6"/>
      <stop offset="1" stop-color="#0D1320"/>
    </linearGradient>
    <linearGradient id="paint1_linear" x1="692" y1="325" x2="906" y2="462" gradientUnits="userSpaceOnUse">
      <stop stop-color="#C9A85D"/>
      <stop offset="1" stop-color="#16120A"/>
    </linearGradient>
    <linearGradient id="paint2_linear" x1="1100" y1="250" x2="1338" y2="444" gradientUnits="userSpaceOnUse">
      <stop stop-color="#F5F5F5"/>
      <stop offset="1" stop-color="#2A2D33"/>
    </linearGradient>
  </defs>
</svg>
