<svg width="1600" height="1200" viewBox="0 0 1600 1200" fill="none" xmlns="http://www.w3.org/2000/svg">
  <rect width="1600" height="1200" fill="#0D0D0E"/>
  <rect x="74" y="74" width="1452" height="1052" rx="36" fill="url(#paint0_linear)"/>
  <circle cx="1250" cy="310" r="240" fill="#C9A85D" fill-opacity="0.18"/>
  <circle cx="320" cy="970" r="260" fill="#3B82F6" fill-opacity="0.14"/>
  <rect x="170" y="180" width="1260" height="760" rx="30" fill="#121316" stroke="white" stroke-opacity="0.08"/>
  <path d="M330 790V410H420L602 646V410H708V790H614L436 560V790H330Z" fill="#F5F5F5"/>
  <path d="M798 790V410H1110V502H904V563H1088V650H904V698H1124V790H798Z" fill="#F5F5F5"/>
  <rect x="980" y="212" width="220" height="54" rx="27" fill="#F5F5F5" fill-opacity="0.08"/>
  <text x="1090" y="246" fill="#F5F5F5" fill-opacity="0.72" font-family="Arial, Helvetica, sans-serif" font-size="22" text-anchor="middle">LUXURY IDENTITY</text>
  <text x="170" y="1040" fill="#F5F5F5" fill-opacity="0.75" font-family="Arial, Helvetica, sans-serif" font-size="34">Northline Atelier</text>
  <text x="170" y="1088" fill="#C9A85D" font-family="Arial, Helvetica, sans-serif" font-size="20" letter-spacing="4">LOGO DESIGN / BRAND SYSTEM</text>
  <defs>
    <linearGradient id="paint0_linear" x1="166" y1="118" x2="1360" y2="1110" gradientUnits="userSpaceOnUse">
      <stop stop-color="#15171C"/>
      <stop offset="1" stop-color="#0A0A0B"/>
    </linearGradient>
  </defs>
</svg>
