<svg width="1600" height="1200" viewBox="0 0 1600 1200" fill="none" xmlns="http://www.w3.org/2000/svg">
  <rect width="1600" height="1200" fill="#090A0C"/>
  <circle cx="1320" cy="190" r="170" fill="#3B82F6" fill-opacity="0.22"/>
  <rect x="92" y="82" width="1416" height="1036" rx="42" fill="#101317" stroke="white" stroke-opacity="0.08"/>
  <rect x="162" y="152" width="1276" height="90" rx="20" fill="#15181E"/>
  <rect x="220" y="183" width="210" height="26" rx="13" fill="#F5F5F5" fill-opacity="0.72"/>
  <rect x="1170" y="174" width="180" height="44" rx="22" fill="#C9A85D"/>
  <rect x="162" y="292" width="1276" height="620" rx="30" fill="url(#paint0_linear)"/>
  <rect x="234" y="398" width="474" height="44" rx="22" fill="#F5F5F5"/>
  <rect x="234" y="468" width="370" height="24" rx="12" fill="#F5F5F5" fill-opacity="0.72"/>
  <rect x="234" y="512" width="418" height="24" rx="12" fill="#F5F5F5" fill-opacity="0.48"/>
  <rect x="234" y="595" width="188" height="54" rx="27" fill="#0B0B0C"/>
  <rect x="910" y="350" width="400" height="490" rx="28" fill="#0B0B0C" fill-opacity="0.48" stroke="white" stroke-opacity="0.1"/>
  <rect x="965" y="420" width="290" height="205" rx="20" fill="url(#paint1_linear)"/>
  <rect x="965" y="665" width="192" height="20" rx="10" fill="#F5F5F5"/>
  <rect x="965" y="706" width="245" height="16" rx="8" fill="#F5F5F5" fill-opacity="0.66"/>
  <text x="234" y="366" fill="#C9A85D" font-family="Arial, Helvetica, sans-serif" font-size="22" letter-spacing="4">WEBSITE UI MOCKUP</text>
  <defs>
    <linearGradient id="paint0_linear" x1="262" y1="350" x2="1274" y2="850" gradientUnits="userSpaceOnUse">
      <stop stop-color="#1A2230"/>
      <stop offset="1" stop-color="#111111"/>
    </linearGradient>
    <linearGradient id="paint1_linear" x1="992" y1="448" x2="1228" y2="602" gradientUnits="userSpaceOnUse">
      <stop stop-color="#3B82F6"/>
      <stop offset="1" stop-color="#C9A85D"/>
    </linearGradient>
  </defs>
</svg>
